<svg width="24" height="25" viewBox="0 0 24 25" fill="none" xmlns="http://www.w3.org/2000/svg">
<path fill-rule="evenodd" clip-rule="evenodd" d="M12 8.36071C13.366 8.36071 14.6554 8.89777 15.6306 9.87298C16.6058 10.8481 17.1429 12.1376 17.1429 13.5036C17.1429 14.4476 16.906 15.3267 16.4387 16.1164C15.992 16.8717 15.3439 17.5112 14.5645 17.966L13.7143 18.4622V19.4466V23.2463H10.2857V19.4466V18.4622L9.43548 17.966C7.84511 17.0379 6.85714 15.328 6.85714 13.5036C6.85714 12.1376 7.3942 10.8482 8.36941 9.87298C9.34463 8.89777 10.634 8.36071 12 8.36071ZM13.1428 0.960571C12.8002 0.960571 10.8572 0.960571 10.8572 0.960571V4.38914H13.1428V0.960571ZM20.0569 3.84614L18 5.90366L19.5999 7.50357L21.6573 5.44664L20.0569 3.84614ZM3.94307 3.84614L2.34262 5.44659L4.40009 7.50352L6 5.90366L3.94307 3.84614ZM12 6.64643C8.22879 6.64643 5.14286 9.73236 5.14286 13.5036C5.14286 16.0181 6.5145 18.2463 8.57143 19.4467V24.9606H15.4286V19.4466C17.4855 18.2463 18.8571 16.0749 18.8571 13.5035C18.8571 9.7323 15.7712 6.64643 12 6.64643ZM24 12.3607H20.5714V14.6464H24V12.3607ZM3.42857 12.3607H0V14.6464H3.42857V12.3607Z" fill="#F38D21"/>
</svg>
