<svg width="24" height="25" viewBox="0 0 24 25" fill="none" xmlns="http://www.w3.org/2000/svg">
<path fill-rule="evenodd" clip-rule="evenodd" d="M12 8.67492C9.64264 8.67492 7.71423 10.6035 7.71423 12.9606C7.71423 15.318 9.64264 17.2463 12 17.2463C14.3574 17.2463 16.2857 15.318 16.2857 12.9606C16.2857 10.6035 14.3574 8.67492 12 8.67492ZM22.2288 11.8178C21.7143 7.07506 17.8856 3.24636 13.1428 2.73213V0.960632H10.8572V2.73208C6.11443 3.24631 2.28573 7.07501 1.77123 11.8177H0V14.1035H1.77118C2.28568 18.8462 6.11432 22.6749 10.8571 23.1894V24.9606H13.1428V23.1895C17.8855 22.675 21.7142 18.8463 22.2288 14.1035H24V11.8178H22.2288ZM12 20.9606C7.5998 20.9606 3.99996 17.3607 3.99996 12.9606C3.99996 8.56049 7.5998 4.96065 12 4.96065C16.4001 4.96065 19.9999 8.56054 19.9999 12.9606C19.9999 17.3607 16.4001 20.9606 12 20.9606Z" fill="#00BCD4"/>
</svg>
