<svg width="25" height="25" viewBox="0 0 25 25" fill="none" xmlns="http://www.w3.org/2000/svg">
<path fill-rule="evenodd" clip-rule="evenodd" d="M7.36406 9.96499L5.68418 11.6449L11.0842 17.0449L23.0842 5.04487L21.4043 3.36499L11.0842 13.6248L7.36406 9.96499ZM21.8842 12.2449C21.8842 17.5248 17.564 21.8449 12.2842 21.8449C7.00435 21.8449 2.68418 17.5248 2.68418 12.2449C2.68418 6.96499 7.00429 2.64487 12.2842 2.64487C13.1842 2.64487 14.0842 2.76499 14.9244 3.00493L16.7842 1.14487C15.4043 0.544873 13.9043 0.244873 12.2842 0.244873C5.68418 0.244873 0.28418 5.64487 0.28418 12.2449C0.28418 18.8449 5.68418 24.2449 12.2842 24.2449C18.8842 24.2449 24.2842 18.8449 24.2842 12.2449H21.8842Z" fill="#2196F3"/>
</svg>
